<svg width="260" height="126" viewBox="0 0 260 126" fill="none" xmlns="http://www.w3.org/2000/svg">
<path d="M127 14C127 6.824 121.18 1 114 1L95 1.002V27H114C121.18 27 127 21.176 127 14ZM127 14C127 15.104 127.9 16 129 16C130.1 16 131 15.104 131 14M127 14C127 12.896 127.9 12 129 12C130.1 12 131 12.896 131 14M131 14H151.5M19.5 7.5H95M86.5 20.5H95" stroke="#FFD700" stroke-linecap="square"/>
<path d="M248.079 63C248.079 64.5136 246.992 65.7273 245.652 65.7273C244.313 65.7273 243.226 64.5136 243.226 63C243.226 61.5 244.313 60.2727 245.652 60.2727C246.992 60.2727 248.079 61.5 248.079 63ZM248.079 63H259M201 63H219.564M219.564 78V48L242.602 63L219.564 78Z" stroke="#FFD700" stroke-linecap="square"/>
<path d="M128.5 99H151.5M77.5 92.5H95M86 105.5H95M92.5 86V86.062C94.699 89.877 95.969 94.283 95.969 99C95.969 103.716 94.699 108.122 92.5 111.935V111.995H105.969C115.579 111.995 123.969 106.76 128.469 99C123.969 91.239 115.579 86 105.969 86H92.5Z" stroke="#FFD700" stroke-linecap="square"/>
<path d="M56 58C56 50.824 50.176 45 43 45L24 45.002V71H43C50.176 71 56 65.176 56 58ZM56 58H77.5M8 51.5H24M8 64.5H24" stroke="#FFD700" stroke-linecap="square"/>
<path d="M200 63C200 55.824 194.176 50 187 50L168 50.002V76H187C194.176 76 200 70.176 200 63ZM200 63H208.5M152 56.5H168M152 69.5H168" stroke="#FFD700" stroke-linecap="square"/>
<path d="M29.8857 84H28.2379L30.7486 76.7273H32.7301L35.2372 84H33.5895L31.7678 78.3892H31.7109L29.8857 84ZM29.7827 81.1413H33.6747V82.3416H29.7827V81.1413ZM42.1957 76.7273V84H40.8675L37.7035 79.4226H37.6502V84H36.1126V76.7273H37.462L40.6012 81.3011H40.6651V76.7273H42.1957ZM46.0442 84H43.4661V76.7273H46.0655C46.7971 76.7273 47.4268 76.8729 47.9547 77.1641C48.4827 77.4529 48.8887 77.8684 49.1728 78.4105C49.4592 78.9527 49.6025 79.6013 49.6025 80.3565C49.6025 81.1141 49.4592 81.7652 49.1728 82.3097C48.8887 82.8542 48.4803 83.272 47.9476 83.5632C47.4173 83.8544 46.7828 84 46.0442 84ZM45.0037 82.6825H45.9803C46.4348 82.6825 46.8172 82.602 47.1273 82.4411C47.4398 82.2777 47.6742 82.0256 47.8304 81.6847C47.9891 81.3414 48.0684 80.8987 48.0684 80.3565C48.0684 79.8191 47.9891 79.38 47.8304 79.0391C47.6742 78.6982 47.441 78.4472 47.1309 78.2862C46.8207 78.1252 46.4384 78.0447 45.9838 78.0447H45.0037V82.6825Z" fill="white"/>
<path d="M172.886 86H171.238L173.749 78.7273H175.73L178.237 86H176.589L174.768 80.3892H174.711L172.886 86ZM172.783 83.1413H176.675V84.3416H172.783V83.1413ZM185.196 78.7273V86H183.868L180.703 81.4226H180.65V86H179.113V78.7273H180.462L183.601 83.3011H183.665V78.7273H185.196ZM189.044 86H186.466V78.7273H189.066C189.797 78.7273 190.427 78.8729 190.955 79.1641C191.483 79.4529 191.889 79.8684 192.173 80.4105C192.459 80.9527 192.602 81.6013 192.602 82.3565C192.602 83.1141 192.459 83.7652 192.173 84.3097C191.889 84.8542 191.48 85.272 190.948 85.5632C190.417 85.8544 189.783 86 189.044 86ZM188.004 84.6825H188.98C189.435 84.6825 189.817 84.602 190.127 84.4411C190.44 84.2777 190.674 84.0256 190.83 83.6847C190.989 83.3414 191.068 82.8987 191.068 82.3565C191.068 81.8191 190.989 81.38 190.83 81.0391C190.674 80.6982 190.441 80.4472 190.131 80.2862C189.821 80.1252 189.438 80.0447 188.984 80.0447H188.004V84.6825Z" fill="white"/>
<path d="M105.315 120.364C105.315 121.157 105.165 121.831 104.864 122.388C104.566 122.944 104.159 123.369 103.643 123.663C103.129 123.954 102.551 124.099 101.91 124.099C101.263 124.099 100.683 123.953 100.17 123.659C99.656 123.366 99.25 122.941 98.9517 122.384C98.6534 121.828 98.5043 121.154 98.5043 120.364C98.5043 119.571 98.6534 118.896 98.9517 118.339C99.25 117.783 99.656 117.359 100.17 117.068C100.683 116.775 101.263 116.628 101.91 116.628C102.551 116.628 103.129 116.775 103.643 117.068C104.159 117.359 104.566 117.783 104.864 118.339C105.165 118.896 105.315 119.571 105.315 120.364ZM103.756 120.364C103.756 119.85 103.679 119.417 103.526 119.064C103.374 118.711 103.16 118.444 102.883 118.261C102.606 118.079 102.281 117.988 101.91 117.988C101.538 117.988 101.214 118.079 100.937 118.261C100.66 118.444 100.444 118.711 100.29 119.064C100.139 119.417 100.063 119.85 100.063 120.364C100.063 120.877 100.139 121.311 100.29 121.663C100.444 122.016 100.66 122.284 100.937 122.466C101.214 122.648 101.538 122.739 101.91 122.739C102.281 122.739 102.606 122.648 102.883 122.466C103.16 122.284 103.374 122.016 103.526 121.663C103.679 121.311 103.756 120.877 103.756 120.364ZM106.454 124V116.727H109.324C109.873 116.727 110.342 116.826 110.73 117.022C111.121 117.216 111.418 117.492 111.621 117.849C111.827 118.205 111.93 118.622 111.93 119.103C111.93 119.586 111.826 120.001 111.618 120.349C111.409 120.695 111.108 120.96 110.712 121.145C110.319 121.33 109.843 121.422 109.285 121.422H107.363V120.186H109.036C109.33 120.186 109.573 120.146 109.768 120.065C109.962 119.985 110.106 119.864 110.201 119.703C110.298 119.542 110.346 119.342 110.346 119.103C110.346 118.862 110.298 118.658 110.201 118.492C110.106 118.326 109.961 118.201 109.764 118.116C109.57 118.028 109.325 117.984 109.029 117.984H107.992V124H106.454ZM110.382 120.69L112.189 124H110.492L108.724 120.69H110.382Z" fill="white"/>
<path d="M109.215 35.7273V43H107.887L104.723 38.4226H104.67V43H103.132V35.7273H104.482L107.621 40.3011H107.685V35.7273H109.215ZM111.739 43H110.091L112.602 35.7273H114.584L117.091 43H115.443L113.621 37.3892H113.564L111.739 43ZM111.636 40.1413H115.528V41.3416H111.636V40.1413ZM124.049 35.7273V43H122.721L119.557 38.4226H119.504V43H117.966V35.7273H119.316L122.455 40.3011H122.519V35.7273H124.049ZM127.898 43H125.32V35.7273H127.919C128.651 35.7273 129.28 35.8729 129.808 36.1641C130.336 36.4529 130.742 36.8684 131.026 37.4105C131.313 37.9527 131.456 38.6013 131.456 39.3565C131.456 40.1141 131.313 40.7652 131.026 41.3097C130.742 41.8542 130.334 42.272 129.801 42.5632C129.271 42.8544 128.636 43 127.898 43ZM126.857 41.6825H127.834C128.288 41.6825 128.671 41.602 128.981 41.4411C129.293 41.2777 129.528 41.0256 129.684 40.6847C129.843 40.3414 129.922 39.8987 129.922 39.3565C129.922 38.8191 129.843 38.38 129.684 38.0391C129.528 37.6982 129.295 37.4472 128.984 37.2862C128.674 37.1252 128.292 37.0447 127.837 37.0447H126.857V41.6825Z" fill="white"/>
<path d="M3.75355 47.7273V55H2.21591V49.1868H2.1733L0.507812 50.2308V48.8672L2.30824 47.7273H3.75355Z" fill="white"/>
<path d="M3.75355 61.7273V69H2.21591V63.1868H2.1733L0.507812 64.2308V62.8672L2.30824 61.7273H3.75355Z" fill="white"/>
<path d="M78.7536 102.727V110H77.2159V104.187H77.1733L75.5078 105.231V103.867L77.3082 102.727H78.7536Z" fill="white"/>
<line x1="77.5" y1="93" x2="77.5" y2="58" stroke="#FFD700"/>
<line x1="19.5" y1="51" x2="19.5" y2="8" stroke="#FFD700"/>
<line x1="86.5" y1="106" x2="86.5" y2="21" stroke="#FFD700"/>
<line x1="151.5" y1="57" x2="151.5" y2="14" stroke="#FFD700"/>
<line x1="151.5" y1="99" x2="151.5" y2="69" stroke="#FFD700"/>
</svg>
